<svg xmlns="http://www.w3.org/2000/svg" width="334" height="559" viewBox="0 0 334 559" fill="none"><path d="M332.785 54.201C332.785 67.7604 327.631 81.4319 317.209 91.7415L91.8539 317.097C71.1225 337.828 37.3921 337.828 16.6608 317.097C-4.07051 296.365 -4.07051 262.635 16.6608 241.904L242.016 16.5485C262.747 -4.18283 296.478 -4.18283 317.209 16.5485C327.518 26.9702 332.785 40.5296 332.785 54.201Z" stroke="#378FFA" stroke-width="2" stroke-miterlimit="10"></path><path d="M54.089 226.326C67.6484 226.326 81.3198 231.481 91.6295 241.903L317.097 467.258C337.828 487.989 337.828 521.719 317.097 542.451C296.365 563.182 262.635 563.182 241.903 542.451L16.5485 317.096C-4.18283 296.364 -4.18283 262.634 16.5485 241.903C26.9702 231.593 40.6416 226.326 54.089 226.326Z" stroke="#378FFA" stroke-width="2" stroke-miterlimit="10"></path><path d="M279.556 107.767C308.892 107.767 332.673 83.9859 332.673 54.6502C332.673 25.3145 308.892 1.5332 279.556 1.5332C250.22 1.5332 226.439 25.3145 226.439 54.6502C226.439 83.9859 250.22 107.767 279.556 107.767Z" stroke="#378FFA" stroke-width="2" stroke-miterlimit="10"></path></svg>