<svg xmlns="http://www.w3.org/2000/svg" width="321" height="278" viewBox="0 0 321 278" fill="none"><path d="M90.7174 148.466C104.009 153.116 114.311 160.755 121.621 171.384C128.932 182.012 132.587 194.965 132.587 210.244C132.587 230.172 126.273 246.447 113.646 259.068C101.019 271.689 85.4006 278 66.7919 278C47.5186 278 31.5683 271.689 18.941 259.068C6.31366 245.783 0 229.508 0 210.244C0 200.944 0.996892 191.644 2.99068 182.344C5.64907 172.38 10.6335 158.098 17.9441 139.498L64.7981 0H127.602L90.7174 148.466ZM279.13 148.466C292.422 153.116 302.724 160.755 310.034 171.384C317.345 182.012 321 194.965 321 210.244C321 230.172 314.686 246.447 302.059 259.068C289.432 271.689 273.814 278 255.205 278C235.932 278 219.981 271.689 207.354 259.068C194.727 245.783 188.413 229.508 188.413 210.244C188.413 200.944 189.41 191.644 191.404 182.344C194.062 172.38 199.047 158.098 206.357 139.498L253.211 0H316.016L279.13 148.466Z" fill="#DBB837"></path></svg>